<?xml version="1.0" encoding="UTF-8"?>
<!DOCTYPE svg PUBLIC "-//W3C//DTD SVG 1.0//EN" "http://www.w3.org/TR/2001/REC-SVG-20010904/DTD/svg10.dtd">
<svg fill-opacity="1" xmlns:xlink="http://www.w3.org/1999/xlink" color-rendering="auto" color-interpolation="auto" text-rendering="auto" stroke="black" stroke-linecap="square" stroke-miterlimit="10" shape-rendering="auto" stroke-opacity="1" fill="black" stroke-dasharray="none" font-weight="normal" stroke-width="1" xmlns="http://www.w3.org/2000/svg" font-family="'Dialog'" font-style="normal" stroke-linejoin="miter" font-size="12" stroke-dashoffset="0" image-rendering="auto">
  <!--Unicode Character 'EGYPTIAN HIEROGLYPH D053' (U+130BA)-->
  <defs id="genericDefs"/>
  <g>
    <g>
      <path d="M303.0469 348.1875 Q303.0469 358.7344 295.6641 366.1172 Q288.2812 373.5 277.7344 373.5 L52.875 373.5 Q42.3281 373.5 34.9453 366.1172 Q27.5625 358.7344 27.5625 348.1875 L27.5625 123.3281 Q27.5625 112.7812 34.9453 105.3984 Q42.3281 98.0156 52.875 98.0156 L277.7344 98.0156 Q288.2812 98.0156 295.6641 105.3984 Q303.0469 112.7812 303.0469 123.3281 L303.0469 348.1875 ZM243.5625 117.7031 L243.5625 106.3125 Q243.5625 101.3906 238.9219 101.3906 L229.5 101.3906 L229.5 122.625 L238.9219 122.625 Q243.5625 122.625 243.5625 117.7031 ZM275.4844 151.7344 L275.4844 145.8281 Q275.4844 137.5312 269.5078 131.5547 Q263.5312 125.5781 255.2344 125.5781 L249.3281 125.5781 L275.4844 151.7344 ZM292.6406 177.0469 L292.6406 155.25 L290.1094 155.25 L285.6094 157.7812 L285.6094 160.5938 L287.8594 160.5938 L287.8594 177.0469 L292.6406 177.0469 ZM224.2969 122.625 L224.2969 119.6719 L217.6875 119.6719 L217.6875 113.4844 L222.0469 113.4844 L222.0469 110.5312 L217.6875 110.5312 L217.6875 104.4844 L224.2969 104.4844 L224.2969 101.3906 L212.4844 101.3906 L212.4844 122.625 L224.2969 122.625 ZM295.0312 186.4688 L295.0312 183.375 L283.2188 183.375 L283.2188 205.1719 L288.2812 205.1719 L288.2812 195.75 L292.7812 195.75 L292.7812 192.7969 L288.2812 192.7969 L288.2812 186.4688 L295.0312 186.4688 ZM275.4844 183.2344 L275.4844 167.625 L233.4375 125.5781 L217.6875 125.5781 L275.4844 183.2344 ZM207 122.625 L207 101.3906 L204.0469 101.3906 L204.0469 112.3594 L192.0938 101.3906 L190.5469 101.3906 L190.5469 122.625 L193.5 122.625 L193.5 111.6562 L205.4531 122.625 L207 122.625 ZM184.7812 122.625 L184.7812 101.3906 L180 101.3906 L180 122.625 L184.7812 122.625 ZM295.0312 213.8906 L295.0312 210.7969 L283.2188 210.7969 L283.2188 232.5938 L288.2812 232.5938 L288.2812 223.1719 L292.7812 223.1719 L292.7812 220.2188 L288.2812 220.2188 L288.2812 213.8906 L295.0312 213.8906 ZM275.4844 215.0156 L275.4844 199.125 L201.7969 125.5781 L186.0469 125.5781 L275.4844 215.0156 ZM175.7812 104.2031 L175.7812 101.1094 L164.1094 101.1094 L164.1094 122.3438 L169.1719 122.3438 L169.1719 113.2031 L173.6719 113.2031 L173.6719 110.25 L169.1719 110.25 L169.1719 104.2031 L175.7812 104.2031 ZM158.625 122.625 L158.625 119.6719 L152.0156 119.6719 L152.0156 113.4844 L156.375 113.4844 L156.375 110.5312 L152.0156 110.5312 L152.0156 104.4844 L158.625 104.4844 L158.625 101.3906 L146.9531 101.3906 L146.9531 122.625 L158.625 122.625 ZM295.0312 241.3125 L295.0312 238.3594 L283.2188 238.3594 L283.2188 260.0156 L288.2812 260.0156 L288.2812 250.7344 L292.7812 250.7344 L292.7812 247.6406 L288.2812 247.6406 L288.2812 241.3125 L295.0312 241.3125 ZM141.6094 117.7031 L141.6094 106.3125 Q141.6094 101.3906 137.1094 101.3906 L127.5469 101.3906 L127.5469 122.625 L137.1094 122.625 Q141.6094 122.625 141.6094 117.7031 ZM297 283.0781 L297 271.2656 Q297 266.2031 291.9375 266.2031 L281.3906 266.0625 L281.3906 288.1406 L291.9375 288.1406 Q297 288.1406 297 283.0781 ZM122.625 122.625 L122.625 101.3906 L119.6719 101.3906 L119.6719 112.3594 L107.7188 101.3906 L106.1719 101.3906 L106.1719 122.625 L109.125 122.625 L109.125 111.6562 L121.2188 122.625 L122.625 122.625 ZM100.9688 117.7031 L100.9688 101.3906 L95.9062 101.3906 L95.9062 117.7031 L95.3438 119.1094 L93.9375 119.6719 L92.6719 119.1094 L92.1094 117.7031 L92.1094 101.3906 L86.9062 101.3906 L86.9062 117.9844 Q86.9062 122.625 91.5469 122.625 L96.4688 122.625 Q100.9688 122.625 100.9688 117.7031 ZM275.4844 326.3906 L233.1562 284.2031 Q236.6719 279.4219 239.3438 274.3594 L275.4844 310.5 L275.4844 294.8906 L243.9844 263.3906 Q246.0938 257.3438 247.2188 250.7344 L275.4844 279 L275.4844 263.1094 L248.4844 236.25 L248.4844 235.6875 Q248.4844 226.8281 246.9375 218.6719 L275.4844 247.2188 L275.4844 230.9062 L235.9688 191.3906 Q225.5625 175.3594 209.6719 165.0938 L170.1562 125.5781 L153.7031 125.5781 L182.25 154.125 Q174.0938 152.4375 165.2344 152.4375 L164.8125 152.5781 L137.8125 125.5781 L122.0625 125.5781 L150.1875 153.7031 Q143.7188 154.8281 137.5312 156.9375 L106.1719 125.5781 L90.4219 125.5781 L126.5625 161.7188 Q121.6406 164.3906 116.8594 167.7656 L74.5312 125.5781 Q68.0625 125.8594 63 129.7969 L108.2812 175.0781 Q104.0625 179.0156 100.5469 183.2344 L56.25 138.9375 Q54.9844 142.3125 54.9844 145.8281 L54.9844 153.7031 L93.7969 192.5156 Q90.7031 197.5781 88.4531 202.9219 L54.9844 169.5938 L54.9844 185.3438 L84.5156 214.7344 Q82.8281 221.4844 82.2656 228.5156 L54.9844 201.2344 L54.9844 216.9844 L82.4062 244.2656 Q83.3906 254.9531 86.9062 264.6562 L54.9844 232.875 L54.9844 248.625 L152.2969 345.9375 L168.1875 345.9375 L136.2656 314.1562 Q145.9688 317.6719 156.7969 318.6562 L184.0781 345.9375 L199.6875 345.9375 L172.5469 318.7969 Q179.5781 318.2344 186.1875 316.5469 L215.5781 345.9375 L231.4688 345.9375 L198 312.6094 Q203.4844 310.2188 208.5469 307.125 L247.3594 345.9375 L255.2344 345.9375 Q258.75 345.9375 261.9844 344.8125 L217.8281 300.5156 Q222.1875 296.8594 225.9844 292.7812 L271.2656 338.0625 Q275.2031 332.8594 275.4844 326.3906 ZM44.8594 177.0469 L44.8594 155.25 L42.3281 155.25 L37.8281 157.7812 L37.8281 160.5938 L39.9375 160.5938 L39.9375 177.0469 L44.8594 177.0469 ZM218.25 370.125 L218.25 348.4688 L215.7188 348.4688 L211.2188 350.8594 L211.2188 353.8125 L213.3281 353.8125 L213.3281 370.125 L218.25 370.125 ZM49.0781 199.5469 L49.0781 187.7344 Q49.0781 182.6719 44.0156 182.6719 L38.5312 182.6719 Q33.4688 182.6719 33.4688 187.4531 L33.4688 199.8281 Q33.4688 204.6094 38.5312 204.6094 L44.0156 204.6094 Q49.0781 204.6094 49.0781 199.5469 ZM198.7031 370.125 L198.7031 367.1719 L191.9531 367.1719 L191.9531 360.9844 L196.4531 360.9844 L196.4531 358.0312 L191.9531 358.0312 L191.9531 351.9844 L198.7031 351.9844 L198.7031 348.8906 L186.8906 348.8906 L186.8906 370.125 L198.7031 370.125 ZM49.0781 227.3906 L49.0781 215.5781 Q49.0781 210.5156 44.0156 210.5156 L38.5312 210.5156 Q33.4688 210.5156 33.4688 215.2969 L33.4688 227.6719 Q33.4688 232.4531 38.5312 232.4531 L44.0156 232.4531 Q49.0781 232.4531 49.0781 227.3906 ZM181.9688 370.125 L181.9688 348.8906 L179.0156 348.8906 L179.0156 359.8594 L166.9219 348.8906 L165.375 348.8906 L165.375 370.125 L168.3281 370.125 L168.3281 359.1562 L180.4219 370.125 L181.9688 370.125 ZM160.875 370.125 L160.875 353.8125 Q160.875 348.8906 156.2344 348.8906 L151.3125 348.8906 Q146.6719 348.8906 146.6719 353.6719 L146.6719 370.125 L151.875 370.125 L151.875 360.9844 L155.6719 360.9844 L155.6719 370.125 L160.875 370.125 ZM49.0781 255.375 L49.0781 243.4219 Q49.0781 238.3594 44.0156 238.3594 L38.5312 238.3594 Q33.4688 238.3594 33.4688 243.2812 L33.4688 255.5156 Q33.4688 260.4375 38.5312 260.4375 L44.0156 260.4375 Q49.0781 260.4375 49.0781 255.375 ZM136.4062 345.9375 L54.9844 264.5156 L54.9844 280.4062 L120.5156 345.9375 L136.4062 345.9375 ZM141.8906 370.125 L141.8906 367.1719 L135.2812 367.1719 L135.2812 348.8906 L130.0781 348.8906 L130.0781 370.125 L141.8906 370.125 ZM49.0781 283.0781 L49.0781 271.2656 Q49.0781 266.2031 44.0156 266.2031 L38.5312 266.2031 Q33.4688 266.2031 33.4688 270.9844 L33.4688 283.3594 Q33.4688 288.1406 38.5312 288.1406 L44.0156 288.1406 Q49.0781 288.1406 49.0781 283.0781 ZM126.2812 356.3438 L126.2812 353.8125 Q126.2812 348.8906 121.6406 348.8906 L112.2188 348.8906 L112.2188 370.125 L117.2812 370.125 L117.2812 360.9844 Q126.2812 361.125 126.2812 356.3438 ZM104.625 345.9375 L54.9844 296.4375 L54.9844 312.1875 L88.875 345.9375 L104.625 345.9375 ZM72.7031 345.7969 L55.2656 328.2188 Q57.2344 343.8281 72.7031 345.7969 ZM238.3594 117.7031 L237.7969 119.1094 L236.3906 119.6719 L234.5625 119.6719 L234.5625 104.4844 L236.3906 104.4844 L237.7969 105.0469 L238.3594 106.4531 L238.3594 117.7031 ZM136.5469 117.7031 L135.9844 119.1094 L134.5781 119.6719 L132.6094 119.6719 L132.6094 104.4844 L134.5781 104.4844 L135.8438 105.0469 L136.5469 106.4531 L136.5469 117.7031 ZM291.2344 282.9375 L290.6719 284.4844 L289.125 285.0469 L287.0156 285.0469 L287.0156 269.1562 L289.125 269.1562 L290.6719 269.8594 L291.2344 271.2656 L291.2344 282.9375 ZM242.8594 235.6875 Q242.8594 268.5938 220.5 291.0234 Q198.1406 313.4531 165.2344 313.4531 Q132.3281 313.4531 109.9688 291.0234 Q87.6094 268.5938 87.6094 235.6875 Q87.6094 202.9219 110.0391 180.4922 Q132.4688 158.0625 165.2344 158.0625 Q198 158.0625 220.4297 180.4922 Q242.8594 202.9219 242.8594 235.6875 ZM43.4531 199.5469 L42.75 200.9531 L41.3438 201.5156 L39.7969 200.9531 L39.2344 199.5469 L39.2344 187.875 L39.7969 186.3281 L41.3438 185.7656 L42.75 186.3281 L43.4531 187.875 L43.4531 199.5469 ZM43.4531 227.3906 L42.75 228.7969 L41.3438 229.3594 L39.7969 228.7969 L39.2344 227.3906 L39.2344 215.5781 L39.7969 214.1719 L41.3438 213.6094 L42.75 214.1719 L43.4531 215.5781 L43.4531 227.3906 ZM155.6719 358.0312 L151.875 358.0312 L151.875 353.9531 L152.4375 352.5469 L153.8438 351.9844 L155.1094 352.5469 L155.6719 353.9531 L155.6719 358.0312 ZM43.4531 255.2344 L42.75 256.6406 L41.3438 257.3438 L39.7969 256.6406 L39.2344 255.2344 L39.2344 243.5625 L39.7969 242.0156 L41.3438 241.4531 L42.75 242.0156 L43.4531 243.5625 L43.4531 255.2344 ZM43.4531 282.9375 L42.75 284.4844 L41.3438 285.0469 L39.7969 284.4844 L39.2344 282.9375 L39.2344 271.2656 L39.7969 269.8594 L41.3438 269.2969 L42.75 269.8594 L43.4531 271.2656 L43.4531 282.9375 ZM121.0781 356.0625 L120.5156 357.4688 L119.1094 358.0312 L117.2812 358.0312 L117.2812 351.9844 L119.1094 351.9844 L120.5156 352.5469 L121.0781 353.9531 L121.0781 356.0625 ZM237.2344 235.6875 Q237.2344 205.3125 216.4219 184.5 Q195.6094 163.6875 165.2344 163.6875 Q134.8594 163.6875 114.0469 184.5 Q93.2344 205.3125 93.2344 235.6875 Q93.2344 266.2031 113.9766 287.0156 Q134.7188 307.8281 165.2344 307.8281 Q195.75 307.8281 216.4922 287.0156 Q237.2344 266.2031 237.2344 235.6875 ZM174.9375 279 L155.8125 279 L155.8125 211.7812 L146.1094 211.7812 L146.1094 202.2188 L165.375 192.6562 L174.9375 192.6562 L174.9375 279 Z" stroke="none"/>
    </g>
  </g>
</svg>