<?xml version="1.0" encoding="UTF-8" standalone="no"?>
<!-- Created with Inkscape (http://www.inkscape.org/) -->

<svg
   xmlns:dc="http://purl.org/dc/elements/1.1/"
   xmlns:cc="http://creativecommons.org/ns#"
   xmlns:rdf="http://www.w3.org/1999/02/22-rdf-syntax-ns#"
   xmlns:svg="http://www.w3.org/2000/svg"
   xmlns="http://www.w3.org/2000/svg"
   xmlns:sodipodi="http://sodipodi.sourceforge.net/DTD/sodipodi-0.dtd"
   xmlns:inkscape="http://www.inkscape.org/namespaces/inkscape"
   version="1.1"
   id="svg2"
   width="347"
   height="197"
   viewBox="0 0 347 197"
   sodipodi:docname="unicode-13BBA.svg"
   inkscape:version="0.92.2 (5c3e80d, 2017-08-06)">
  <metadata
     id="metadata8">
    <rdf:RDF>
      <cc:Work
         rdf:about="">
        <dc:format>image/svg+xml</dc:format>
        <dc:type
           rdf:resource="http://purl.org/dc/dcmitype/StillImage" />
        <dc:title></dc:title>
      </cc:Work>
    </rdf:RDF>
  </metadata>
  <defs
     id="defs6" />
  <sodipodi:namedview
     pagecolor="#ffffff"
     bordercolor="#666666"
     borderopacity="1"
     objecttolerance="10"
     gridtolerance="10"
     guidetolerance="10"
     inkscape:pageopacity="0"
     inkscape:pageshadow="2"
     inkscape:window-width="1853"
     inkscape:window-height="1025"
     id="namedview4"
     showgrid="false"
     inkscape:zoom="1.9711816"
     inkscape:cx="279.0171"
     inkscape:cy="18.328815"
     inkscape:window-x="67"
     inkscape:window-y="27"
     inkscape:window-maximized="1"
     inkscape:current-layer="svg2" />
  <path
     style="fill:#000000"
     d="m 260.92142,174.63287 c -9.12817,-3.2633 -13.60389,-9.65398 -16.55106,-23.6325 -1.92981,-9.15312 -1.71805,-13.7811 0.99789,-21.80874 1.30254,-3.84997 2.09004,-7.43059 1.75,-7.95693 -1.68389,-2.60648 -35.83367,-2.23381 -75.11825,0.81976 -11.63507,0.90439 -13.74175,1.33377 -15.25,3.10823 -0.9625,1.13238 -1.75,2.70497 -1.75,3.49463 0,0.78966 -1.65435,4.78151 -3.67633,8.87077 -7.14169,14.44336 -22.6353,26.66391 -41.82367,32.98832 -12.300978,4.05436 -32.295173,5.71869 -41,3.41288 C 47.963171,168.48932 25.926862,146.80486 18.57309,124.79957 15.698775,116.19852 15.102557,107.86549 14.938447,74 14.846496,55.025 14.822728,38.90761 14.885631,38.183578 c 0.07191,-0.827686 1.135338,-1.198947 2.864369,-1 2.702626,0.310971 2.754995,0.447908 3.039952,7.949058 l 0.289951,7.632636 44.210049,0.686981 C 89.605478,53.830093 119.625,53.995407 132,53.819617 L 154.5,53.5 154.78498,43.25 155.06997,33 h 2.94841 2.94841 L 161.2334,59.25 161.5,85.5 231,86 c 79.37782,0.571063 72.87262,-0.209072 83.04203,9.958804 6.16705,6.166106 12.98527,18.656626 15.47001,28.339986 3.34324,13.02906 1.18941,29.87748 -5.09128,39.82673 -5.25764,8.32865 -17.121,13.4793 -25.36056,11.01066 C 295.08963,173.94657 288,167.01335 288,164.32 c 0,-2.54503 -2.19114,-1.27204 -7.1504,4.15419 -6.59191,7.21259 -12.16364,8.9345 -19.92818,6.15868 z M 95.17371,167.91135 c 18.85143,-3.85308 31.42822,-10.10496 41.93054,-20.8435 5.03933,-5.15267 10.59558,-14.47365 12.37203,-20.7549 l 0.61853,-2.18704 -28.7974,0.55737 C 90.650759,125.27644 82.341047,124.65879 71,120.94471 60.371517,117.46399 55,112.09224 55,104.944 55,96.90513 59.259208,86.324052 64.325962,81.775678 67.477977,78.946146 76.705306,76 82.415389,76 c 6.098165,0 10.720512,1.691508 17.977701,6.578783 L 105.4733,86 h 22.82909 c 13.82433,0 23.59205,-0.408321 24.76335,-1.035184 C 154.80452,84.034249 155,82.776957 155,72.523833 155,66.250644 154.65096,60.902318 154.22436,60.638665 153.79777,60.375012 123.76027,60.045234 87.474365,59.905826 L 21.5,59.652356 21.229413,84.576178 c -0.289723,26.686332 0.49138,33.476832 4.974334,43.244242 3.650753,7.95423 11.818782,19.01365 18.826361,25.4907 6.588969,6.09014 18.681954,13.6742 21.851687,13.70419 C 67.771808,167.02373 69.175,167.46684 70,168 c 2.034354,1.3147 18.593028,1.25639 25.17371,-0.0887 z m 179.31672,-1.08249 c 3.76242,-2.95951 7.19367,-10.7717 8.62314,-19.63295 1.22067,-7.56689 2.64902,-9.46776 5.39916,-7.18534 0.95792,0.795 1.48727,3.03597 1.48727,6.29627 0,7.45137 2.80135,16.34067 6.23009,19.76941 2.44773,2.44773 3.73338,2.92375 7.89649,2.92375 8.17463,0 13.85298,-4.264 17.97789,-13.5 1.8692,-4.18529 2.24629,-6.87383 2.31429,-16.5 0.0685,-9.70257 -0.28247,-12.48211 -2.24579,-17.78354 C 317.48431,108.55594 309.25283,97.749263 301.53442,94.121184 297.03682,92.007063 296.71151,92 203.8319,92 c -69.10087,0 -94.03355,0.305067 -96.45361,1.180171 -3.10971,1.124486 -3.47334,0.986936 -7.706637,-2.915182 -6.607583,-6.090658 -9.87526,-7.453977 -17.690704,-7.380805 -3.724492,0.03487 -8.056361,0.610086 -9.626376,1.278257 C 68.381859,85.853158 64,90.031024 64,92.128074 64,93.092715 63.55,94.160081 63,94.5 c -0.55,0.339919 -1,3.935834 -1,7.99092 0,7.05292 0.130369,7.46572 3.004024,9.51195 7.109573,5.06246 20.366234,6.95376 48.995976,6.99015 21.94327,0.0279 33.70992,-0.57646 58.5,-3.00463 5.5,-0.53872 22.0073,-1.49953 36.68289,-2.13513 34.50128,-1.49425 46.03044,-0.19397 54.02161,6.09269 4.92193,3.87208 1.0104,7.29342 -4.57248,3.99944 l -3.37278,-1.98999 -1.40482,2.2723 c -3.09888,5.01244 -4.26894,10.38718 -4.08667,18.7723 0.24527,11.28319 3.41591,19.73344 8.95425,23.86452 3.9248,2.92752 12.02465,2.9092 15.76843,-0.0357 z"
     id="path817"
     inkscape:connector-curvature="0" />
</svg>
